<svg xmlns="http://www.w3.org/2000/svg" viewBox="0 0 1280 300" width="1280" height="300" role="img" aria-label="Meet4Weed">
  <rect width="1280" height="300" fill="#14120e"/>
  <g transform="translate(96 40) scale(3.9)"><circle cx="32" cy="8" r="5" fill="#e7b968"/><circle cx="52.78" cy="20" r="5" fill="#e7b968"/><circle cx="52.78" cy="44" r="5" fill="#e7b968"/><circle cx="32" cy="56" r="5" fill="#e7b968"/><circle cx="11.22" cy="44" r="5" fill="#e7b968"/><circle cx="11.22" cy="20" r="5" fill="#e7b968"/><path d="M0 0C5 -6 5 -14 0 -20C-5 -14 -5 -6 0 0Z" transform="translate(32 40.3) rotate(-80) scale(0.48)" fill="#b4d982"/><path d="M0 0C5 -6 5 -14 0 -20C-5 -14 -5 -6 0 0Z" transform="translate(32 40.3) rotate(-52) scale(0.74)" fill="#b4d982"/><path d="M0 0C5 -6 5 -14 0 -20C-5 -14 -5 -6 0 0Z" transform="translate(32 40.3) rotate(-25) scale(0.99)" fill="#b4d982"/><path d="M0 0C5 -6 5 -14 0 -20C-5 -14 -5 -6 0 0Z" transform="translate(32 40.3) rotate(0) scale(1.15)" fill="#b4d982"/><path d="M0 0C5 -6 5 -14 0 -20C-5 -14 -5 -6 0 0Z" transform="translate(32 40.3) rotate(25) scale(0.99)" fill="#b4d982"/><path d="M0 0C5 -6 5 -14 0 -20C-5 -14 -5 -6 0 0Z" transform="translate(32 40.3) rotate(52) scale(0.74)" fill="#b4d982"/><path d="M0 0C5 -6 5 -14 0 -20C-5 -14 -5 -6 0 0Z" transform="translate(32 40.3) rotate(80) scale(0.48)" fill="#b4d982"/><rect x="30.51" y="39.3" width="2.99" height="7.48" rx="1.5" fill="#b4d982"/></g>
  <text x="380" y="155" font-family="Georgia, serif" font-size="96" fill="#b4d982">Meet4Weed</text>
  <text x="384" y="212" font-family="Arial, sans-serif" font-size="30" fill="#f5f0e4">A private circle for verified Florida patients.</text>
  <rect y="298" width="1280" height="2" fill="#b4d982"/>
</svg>
